# Blender v2.91.0 OBJ File: ''
# www.blender.org
mtllib Bureau.mtl
o Bureau
v 12.615865 5.045647 -26.500000
v 14.240186 5.045647 -26.500000
v 12.615865 5.045647 -32.148224
v 14.240186 5.045647 -32.148224
v 17.217505 6.535941 -25.000000
v 42.000000 0.000000 -25.000000
v 17.217505 2.336688 -25.000000
v 0.000000 0.000000 -25.000000
v 10.017991 2.336688 -25.000000
v 42.000000 20.000000 -25.000000
v 22.336090 15.581412 -25.000000
v 0.000000 20.000000 -25.000000
v 5.010007 15.581412 -25.000000
v 5.010007 10.000000 -25.000000
v 31.385267 15.648139 -25.000000
v 30.094517 15.887691 -25.000000
v 29.704369 15.882680 -25.000000
v 29.345835 15.728745 -25.000000
v 32.180992 14.872602 -25.000000
v 32.027058 15.231133 -25.000000
v 31.747637 15.503467 -25.000000
v 28.804573 11.034430 -25.000000
v 22.336090 10.000000 -25.000000
v 28.525154 11.306762 -25.000000
v 28.371220 11.665294 -25.000000
v 29.073503 15.449326 -25.000000
v 28.928831 15.086957 -25.000000
v 28.366207 12.055443 -25.000000
v 29.166941 10.889756 -25.000000
v 30.457695 10.650204 -25.000000
v 30.847841 10.655216 -25.000000
v 31.206373 10.809150 -25.000000
v 10.017991 6.535941 -25.000000
v 31.478706 11.088571 -25.000000
v 31.623379 11.450939 -25.000000
v 32.186001 14.482453 -25.000000
v 1.499999 0.000000 -18.000000
v 30.000000 0.000000 -18.000000
v 1.499999 20.000000 -18.000000
v 30.000000 20.000000 -18.000000
v 42.000000 0.000000 0.000000
v 42.000000 20.000000 0.000000
v 1.499999 0.000000 0.000000
v 0.000000 0.000000 0.000000
v 30.000000 0.000000 0.000000
v 0.000000 20.000000 0.000000
v 1.499999 20.000000 0.000000
v 29.102745 20.000000 -23.296476
v 29.102745 20.000000 -19.417503
v 40.567268 20.000000 -17.305616
v 40.567268 20.000000 -19.417503
v 31.731827 20.000000 -17.305616
v 31.731827 20.000000 -19.417503
v 40.567268 20.000000 -23.296476
v 31.731827 20.000000 -23.296476
v 2.122328 20.000000 -19.417503
v 2.122328 20.000000 -23.296476
v 40.567268 20.000000 -1.531124
v 30.000000 20.000000 0.000000
v 31.731827 20.000000 -1.531124
v 31.731827 19.500000 -19.417503
v 31.731827 19.500000 -23.296476
v 40.567268 19.500000 -23.296476
v 40.567268 19.500000 -19.417503
v 2.122328 19.500000 -19.417503
v 2.122328 19.500000 -23.296476
v 29.102745 19.500000 -23.296476
v 29.102745 19.500000 -19.417503
v 31.731827 19.500000 -1.531124
v 31.731827 19.500000 -17.305616
v 40.567268 19.500000 -17.305616
v 40.567268 19.500000 -1.531124
v 5.010007 15.581412 -26.000000
v 5.010007 10.000000 -26.000000
v 22.336090 15.581412 -26.000000
v 22.336090 10.000000 -26.000000
v 31.385267 15.648139 -25.500000
v 31.747637 15.503467 -25.500000
v 32.027058 15.231133 -25.500000
v 32.180992 14.872602 -25.500000
v 32.186001 14.482453 -25.500000
v 31.623379 11.450939 -25.500000
v 31.478706 11.088571 -25.500000
v 31.206373 10.809150 -25.500000
v 30.847841 10.655216 -25.500000
v 30.457695 10.650204 -25.500000
v 29.166941 10.889756 -25.500000
v 28.804573 11.034430 -25.500000
v 28.525154 11.306762 -25.500000
v 28.371220 11.665294 -25.500000
v 28.366207 12.055443 -25.500000
v 28.928831 15.086957 -25.500000
v 29.073503 15.449326 -25.500000
v 29.345835 15.728745 -25.500000
v 29.704369 15.882680 -25.500000
v 30.094517 15.887691 -25.500000
v 29.349417 11.872967 -26.500000
v 29.912041 14.904481 -26.500000
v 30.640169 11.633414 -26.500000
v 31.202793 14.664928 -26.500000
v 32.054279 14.506901 -26.000000
v 31.694397 14.573691 -26.366024
v 31.691891 14.768765 -26.366024
v 31.475214 15.084198 -26.366024
v 31.614925 14.948031 -26.366024
v 31.294029 15.156534 -26.366024
v 32.049938 14.844779 -26.000000
v 31.916626 15.155276 -26.000000
v 31.674641 15.391124 -26.000000
v 31.360821 15.516415 -26.000000
v 31.131775 11.542176 -26.366024
v 31.491653 11.475386 -26.000000
v 30.003279 15.396087 -26.366024
v 30.070068 15.755967 -26.000000
v 30.482141 10.781929 -26.000000
v 30.548931 11.141809 -26.366024
v 30.744005 11.144316 -26.366024
v 31.059439 11.360992 -26.366024
v 30.923271 11.221282 -26.366024
v 30.820019 10.786270 -26.000000
v 31.130516 10.919580 -26.000000
v 31.366364 11.161566 -26.000000
v 29.808203 15.393580 -26.366024
v 29.492773 15.176904 -26.366024
v 29.628939 15.316613 -26.366024
v 29.420435 14.995719 -26.366024
v 29.732189 15.751626 -26.000000
v 29.421692 15.618316 -26.000000
v 29.185846 15.376329 -26.000000
v 29.060556 15.062510 -26.000000
v 29.258179 11.381362 -26.366024
v 29.191389 11.021482 -26.000000
v 28.857813 11.964205 -26.366024
v 28.497932 12.030995 -26.000000
v 28.860319 11.769131 -26.366024
v 29.076996 11.453698 -26.366024
v 28.937284 11.589865 -26.366024
v 28.502274 11.693117 -26.000000
v 28.635584 11.382619 -26.000000
v 28.877569 11.146772 -26.000000
v 10.017991 6.535941 -26.500000
v 10.017991 2.336688 -26.500000
v 17.217505 6.535941 -26.500000
v 17.217505 2.336688 -26.500000
v 14.240186 3.879149 -26.500000
v 12.615865 3.879149 -26.500000
v 14.240186 3.879149 -41.000000
v 14.240186 5.045647 -41.000000
v 12.615865 3.879149 -41.000000
v 12.615865 5.045647 -41.000000
v 1.817618 5.045647 -32.148224
v 1.817618 5.045647 -46.109825
v 25.132158 5.045647 -46.109825
v 25.132158 5.045647 -32.148224
v 25.781998 7.045647 -46.759663
v 25.781998 7.045647 -31.498386
v 1.167778 7.045647 -46.759663
v 1.167778 7.045647 -31.498386
v 2.368508 7.045647 -32.695683
v 24.450272 7.045647 -32.695683
v 24.450272 7.045647 -45.525101
v 2.368508 7.045647 -45.525101
v 2.368508 6.545647 -32.695683
v 2.368508 6.545647 -45.525101
v 24.450272 6.545647 -45.525101
v 24.450272 6.545647 -32.695683
vn 0.0000 1.0000 0.0000
vn 0.0000 0.0000 -1.0000
vn 0.0000 0.0000 1.0000
vn 1.0000 0.0000 0.0000
vn 0.0000 -1.0000 0.0000
vn -1.0000 0.0000 0.0000
vn 0.3708 0.9287 0.0000
vn 0.6980 0.7161 0.0000
vn 0.9189 0.3945 0.0000
vn 0.9999 0.0128 0.0000
vn 0.9832 -0.1825 0.0000
vn 0.9287 -0.3708 0.0000
vn 0.7161 -0.6980 0.0000
vn 0.3945 -0.9189 0.0000
vn 0.0128 -0.9999 0.0000
vn -0.1825 -0.9832 0.0000
vn -0.3708 -0.9287 0.0000
vn -0.6980 -0.7161 0.0000
vn -0.9189 -0.3945 0.0000
vn -0.9999 -0.0128 0.0000
vn -0.9832 0.1825 0.0000
vn -0.9287 0.3708 0.0000
vn -0.7161 0.6980 0.0000
vn -0.3945 0.9189 0.0000
vn -0.0128 0.9999 0.0000
vn 0.1825 0.9832 0.0000
vn 0.7139 0.0092 -0.7002
vn 0.1839 0.1887 -0.9646
vn 0.0977 0.2448 -0.9646
vn 0.2635 0.0034 -0.9646
vn 0.6560 0.2817 -0.7002
vn 0.4983 0.5113 -0.7002
vn 0.2647 0.6630 -0.7002
vn 0.9671 0.0124 -0.2542
vn 0.8887 0.3816 -0.2542
vn 0.6750 0.6926 -0.2542
vn 0.3586 0.8982 -0.2542
vn 0.6560 0.2816 -0.7002
vn 0.2422 0.1040 -0.9646
vn 0.2545 -0.0472 -0.9659
vn 0.6952 -0.1290 -0.7071
vn 0.9497 -0.1763 -0.2588
vn 0.0472 0.2545 -0.9659
vn 0.1290 0.6952 -0.7071
vn 0.1763 0.9497 -0.2588
vn 0.0092 -0.7139 -0.7002
vn 0.1887 -0.1840 -0.9646
vn 0.2448 -0.0977 -0.9646
vn 0.0034 -0.2635 -0.9646
vn 0.2817 -0.6560 -0.7002
vn 0.5113 -0.4983 -0.7002
vn 0.6630 -0.2647 -0.7002
vn 0.0124 -0.9671 -0.2542
vn 0.3816 -0.8887 -0.2542
vn 0.6926 -0.6750 -0.2542
vn 0.8982 -0.3586 -0.2542
vn 0.1040 -0.2422 -0.9646
vn -0.0092 0.7139 -0.7002
vn -0.1887 0.1839 -0.9646
vn -0.2448 0.0977 -0.9646
vn -0.0034 0.2635 -0.9646
vn -0.2817 0.6560 -0.7002
vn -0.5113 0.4983 -0.7002
vn -0.6630 0.2647 -0.7002
vn -0.0124 0.9671 -0.2542
vn -0.3816 0.8887 -0.2542
vn -0.6926 0.6750 -0.2542
vn -0.8982 0.3586 -0.2542
vn -0.1040 0.2422 -0.9646
vn -0.0472 -0.2545 -0.9659
vn -0.1290 -0.6952 -0.7071
vn -0.1763 -0.9497 -0.2588
vn -0.2545 0.0472 -0.9659
vn -0.6952 0.1290 -0.7071
vn -0.9497 0.1763 -0.2588
vn -0.7139 -0.0092 -0.7002
vn -0.1839 -0.1887 -0.9646
vn -0.0977 -0.2448 -0.9646
vn -0.2635 -0.0034 -0.9646
vn -0.6560 -0.2817 -0.7002
vn -0.4983 -0.5113 -0.7002
vn -0.2647 -0.6630 -0.7002
vn -0.9671 -0.0124 -0.2542
vn -0.8887 -0.3816 -0.2542
vn -0.6750 -0.6926 -0.2542
vn -0.3586 -0.8982 -0.2542
vn -0.6560 -0.2816 -0.7002
vn -0.2422 -0.1040 -0.9646
vn 0.9511 -0.3090 0.0000
vn 0.0000 -0.3090 -0.9511
vn -0.9511 -0.3090 0.0000
vn 0.0000 -0.3090 0.9511
usemtl None
s off
f 1//1 2//1 3//1
f 3//1 2//1 4//1
f 5//2 6//2 7//2
f 7//2 6//2 8//2
f 7//2 8//2 9//2
f 10//2 11//2 12//2
f 12//2 11//2 13//2
f 12//2 13//2 8//2
f 8//2 13//2 14//2
f 15//2 16//2 10//2
f 10//2 16//2 17//2
f 10//2 17//2 11//2
f 11//2 17//2 18//2
f 19//2 20//2 10//2
f 10//2 20//2 21//2
f 10//2 21//2 15//2
f 22//2 23//2 24//2
f 24//2 23//2 25//2
f 18//2 26//2 11//2
f 11//2 26//2 27//2
f 11//2 27//2 23//2
f 23//2 27//2 28//2
f 23//2 28//2 25//2
f 29//2 30//2 6//2
f 6//2 30//2 31//2
f 6//2 31//2 32//2
f 9//2 8//2 33//2
f 33//2 8//2 14//2
f 33//2 14//2 5//2
f 5//2 14//2 23//2
f 5//2 23//2 6//2
f 6//2 23//2 22//2
f 6//2 22//2 29//2
f 32//2 34//2 6//2
f 6//2 34//2 35//2
f 6//2 35//2 10//2
f 10//2 35//2 36//2
f 10//2 36//2 19//2
f 37//3 38//3 39//3
f 39//3 38//3 40//3
f 41//4 6//4 42//4
f 42//4 6//4 10//4
f 43//5 44//5 37//5
f 37//5 44//5 8//5
f 37//5 8//5 38//5
f 38//5 8//5 6//5
f 38//5 6//5 45//5
f 45//5 6//5 41//5
f 46//6 12//6 44//6
f 44//6 12//6 8//6
f 12//1 46//1 39//1
f 39//1 46//1 47//1
f 40//1 48//1 49//1
f 50//1 51//1 52//1
f 52//1 51//1 53//1
f 54//1 10//1 55//1
f 55//1 10//1 12//1
f 55//1 12//1 48//1
f 40//1 49//1 39//1
f 39//1 49//1 56//1
f 39//1 56//1 12//1
f 12//1 56//1 57//1
f 12//1 57//1 48//1
f 54//1 51//1 10//1
f 10//1 51//1 50//1
f 10//1 50//1 42//1
f 42//1 50//1 58//1
f 42//1 58//1 59//1
f 59//1 58//1 60//1
f 59//1 60//1 40//1
f 40//1 60//1 52//1
f 40//1 52//1 48//1
f 48//1 52//1 53//1
f 48//1 53//1 55//1
f 45//6 59//6 38//6
f 38//6 59//6 40//6
f 59//3 45//3 42//3
f 42//3 45//3 41//3
f 47//4 43//4 39//4
f 39//4 43//4 37//4
f 43//3 47//3 44//3
f 44//3 47//3 46//3
f 61//4 62//4 53//4
f 53//4 62//4 55//4
f 62//3 63//3 55//3
f 55//3 63//3 54//3
f 63//6 64//6 54//6
f 54//6 64//6 51//6
f 64//2 61//2 51//2
f 51//2 61//2 53//2
f 64//1 63//1 61//1
f 61//1 63//1 62//1
f 65//4 66//4 56//4
f 56//4 66//4 57//4
f 66//3 67//3 57//3
f 57//3 67//3 48//3
f 67//6 68//6 48//6
f 48//6 68//6 49//6
f 68//2 65//2 49//2
f 49//2 65//2 56//2
f 68//1 67//1 65//1
f 65//1 67//1 66//1
f 69//4 70//4 60//4
f 60//4 70//4 52//4
f 70//3 71//3 52//3
f 52//3 71//3 50//3
f 71//6 72//6 50//6
f 50//6 72//6 58//6
f 72//2 69//2 58//2
f 58//2 69//2 60//2
f 72//1 71//1 69//1
f 69//1 71//1 70//1
f 73//6 74//6 13//6
f 13//6 74//6 14//6
f 75//1 73//1 11//1
f 11//1 73//1 13//1
f 76//4 75//4 23//4
f 23//4 75//4 11//4
f 74//5 76//5 14//5
f 14//5 76//5 23//5
f 75//2 76//2 73//2
f 73//2 76//2 74//2
f 77//7 15//7 21//7
f 77//7 21//7 78//7
f 78//8 21//8 20//8
f 78//8 20//8 79//8
f 79//9 20//9 19//9
f 79//9 19//9 80//9
f 80//10 19//10 36//10
f 80//10 36//10 81//10
f 81//11 36//11 82//11
f 82//11 36//11 35//11
f 82//12 35//12 34//12
f 82//12 34//12 83//12
f 83//13 34//13 32//13
f 83//13 32//13 84//13
f 84//14 32//14 31//14
f 84//14 31//14 85//14
f 85//15 31//15 30//15
f 85//15 30//15 86//15
f 86//16 30//16 87//16
f 87//16 30//16 29//16
f 87//17 29//17 22//17
f 87//17 22//17 88//17
f 88//18 22//18 24//18
f 88//18 24//18 89//18
f 89//19 24//19 25//19
f 89//19 25//19 90//19
f 90//20 25//20 28//20
f 90//20 28//20 91//20
f 91//21 28//21 92//21
f 92//21 28//21 27//21
f 92//22 27//22 26//22
f 92//22 26//22 93//22
f 93//23 26//23 18//23
f 93//23 18//23 94//23
f 94//24 18//24 17//24
f 94//24 17//24 95//24
f 95//25 17//25 16//25
f 95//25 16//25 96//25
f 96//26 16//26 77//26
f 77//26 16//26 15//26
f 97//2 98//2 99//2
f 99//2 98//2 100//2
f 101//27 102//27 103//27
f 100//28 104//28 105//28
f 106//29 104//29 100//29
f 103//30 102//30 100//30
f 107//31 105//31 108//31
f 108//32 105//32 104//32
f 108//32 104//32 109//32
f 109//33 104//33 106//33
f 109//33 106//33 110//33
f 81//34 107//34 80//34
f 80//35 107//35 108//35
f 80//35 108//35 79//35
f 79//36 108//36 109//36
f 79//36 109//36 78//36
f 78//37 109//37 110//37
f 78//37 110//37 77//37
f 81//34 101//34 107//34
f 107//27 101//27 103//27
f 107//38 103//38 105//38
f 105//39 103//39 100//39
f 99//40 100//40 102//40
f 99//40 102//40 111//40
f 111//41 102//41 101//41
f 111//41 101//41 112//41
f 112//42 101//42 81//42
f 112//42 81//42 82//42
f 100//43 98//43 113//43
f 100//43 113//43 106//43
f 106//44 113//44 114//44
f 106//44 114//44 110//44
f 110//45 114//45 96//45
f 110//45 96//45 77//45
f 115//46 116//46 117//46
f 99//47 118//47 119//47
f 111//48 118//48 99//48
f 117//49 116//49 99//49
f 120//50 119//50 121//50
f 121//51 119//51 118//51
f 121//51 118//51 122//51
f 122//52 118//52 111//52
f 122//52 111//52 112//52
f 86//53 120//53 85//53
f 85//54 120//54 121//54
f 85//54 121//54 84//54
f 84//55 121//55 122//55
f 84//55 122//55 83//55
f 83//56 122//56 112//56
f 83//56 112//56 82//56
f 86//53 115//53 120//53
f 120//46 115//46 117//46
f 120//50 117//50 119//50
f 119//57 117//57 99//57
f 114//58 113//58 123//58
f 98//59 124//59 125//59
f 126//60 124//60 98//60
f 123//61 113//61 98//61
f 127//62 125//62 128//62
f 128//63 125//63 124//63
f 128//63 124//63 129//63
f 129//64 124//64 126//64
f 129//64 126//64 130//64
f 96//65 127//65 95//65
f 95//66 127//66 128//66
f 95//66 128//66 94//66
f 94//67 128//67 129//67
f 94//67 129//67 93//67
f 93//68 129//68 130//68
f 93//68 130//68 92//68
f 96//65 114//65 127//65
f 127//58 114//58 123//58
f 127//62 123//62 125//62
f 125//69 123//69 98//69
f 97//70 99//70 116//70
f 97//70 116//70 131//70
f 131//71 116//71 115//71
f 131//71 115//71 132//71
f 132//72 115//72 86//72
f 132//72 86//72 87//72
f 98//73 97//73 133//73
f 98//73 133//73 126//73
f 126//74 133//74 134//74
f 126//74 134//74 130//74
f 130//75 134//75 91//75
f 130//75 91//75 92//75
f 134//76 133//76 135//76
f 97//77 136//77 137//77
f 131//78 136//78 97//78
f 135//79 133//79 97//79
f 138//80 137//80 139//80
f 139//81 137//81 136//81
f 139//81 136//81 140//81
f 140//82 136//82 131//82
f 140//82 131//82 132//82
f 91//83 138//83 90//83
f 90//84 138//84 139//84
f 90//84 139//84 89//84
f 89//85 139//85 140//85
f 89//85 140//85 88//85
f 88//86 140//86 132//86
f 88//86 132//86 87//86
f 91//83 134//83 138//83
f 138//76 134//76 135//76
f 138//87 135//87 137//87
f 137//88 135//88 97//88
f 141//6 142//6 33//6
f 33//6 142//6 9//6
f 143//1 141//1 5//1
f 5//1 141//1 33//1
f 144//4 143//4 7//4
f 7//4 143//4 5//4
f 142//5 144//5 9//5
f 9//5 144//5 7//5
f 145//2 144//2 146//2
f 146//2 144//2 142//2
f 146//2 142//2 1//2
f 1//2 142//2 141//2
f 1//2 141//2 2//2
f 2//2 141//2 143//2
f 2//2 143//2 145//2
f 145//2 143//2 144//2
f 2//4 145//4 4//4
f 4//4 145//4 147//4
f 4//4 147//4 148//4
f 149//5 147//5 146//5
f 146//5 147//5 145//5
f 150//6 149//6 3//6
f 3//6 149//6 146//6
f 3//6 146//6 1//6
f 149//2 150//2 147//2
f 147//2 150//2 148//2
f 3//5 151//5 150//5
f 150//5 151//5 152//5
f 150//5 152//5 148//5
f 148//5 152//5 153//5
f 148//5 153//5 4//5
f 4//5 153//5 154//5
f 155//89 156//89 153//89
f 153//89 156//89 154//89
f 157//90 155//90 152//90
f 152//90 155//90 153//90
f 158//91 157//91 151//91
f 151//91 157//91 152//91
f 151//92 3//92 158//92
f 158//92 3//92 4//92
f 158//92 4//92 156//92
f 156//92 4//92 154//92
f 159//1 158//1 160//1
f 160//1 158//1 156//1
f 160//1 156//1 161//1
f 161//1 156//1 155//1
f 161//1 155//1 162//1
f 162//1 155//1 157//1
f 162//1 157//1 159//1
f 159//1 157//1 158//1
f 163//4 164//4 159//4
f 159//4 164//4 162//4
f 164//3 165//3 162//3
f 162//3 165//3 161//3
f 165//6 166//6 161//6
f 161//6 166//6 160//6
f 166//2 163//2 160//2
f 160//2 163//2 159//2
f 166//1 165//1 163//1
f 163//1 165//1 164//1
