# Blender v2.91.0 OBJ File: ''
# www.blender.org
mtllib Chambre.mtl
o Chambre
v 2.500001 137.500000 -97.500000
v 2.500001 137.500000 -43.000000
v 2.500001 2.499998 -97.500000
v 2.500001 49.000000 -43.000000
v 2.500001 49.000000 -34.500000
v 2.500001 40.500000 -34.500000
v 2.500001 40.500000 -26.000000
v 2.500001 32.000000 -26.000000
v 2.500001 23.500000 -9.000000
v 2.500001 2.499998 -9.000000
v 2.500001 23.500000 -17.500002
v 2.500001 32.000000 -17.500002
v 23.500002 2.499998 -9.000000
v 87.500000 2.499998 -43.000000
v 87.500000 2.499998 -97.500000
v 39.500000 2.499998 -43.000000
v 39.500000 2.499998 -41.000000
v 39.500000 2.499998 -2.000000
v 23.500002 2.499998 -2.000000
v 17.800001 17.799999 -43.000000
v 17.800001 17.799999 -41.000000
v 17.800001 49.000000 -43.000000
v 17.800001 49.000000 -41.000000
v 90.000000 140.000000 -41.000000
v 0.000000 140.000000 -41.000000
v 0.000000 57.500000 -41.000000
v 23.500002 49.000000 -41.000000
v 39.500000 17.799999 -41.000000
v 23.500002 57.500000 -41.000000
v 90.000000 0.000000 -41.000000
v 39.500000 0.000000 -41.000000
v 45.627350 57.500000 0.000000
v 45.627350 57.500000 -2.000000
v 23.500002 57.500000 -2.000000
v 0.000000 57.500000 0.000000
v 39.500000 0.000000 -2.000000
v 87.500000 137.500000 -97.500000
v 90.000000 140.000000 -97.500000
v 90.000000 0.000000 -97.500000
v 0.000000 0.000000 -97.500000
v 0.000000 140.000000 -97.500000
v 45.627350 0.000000 -2.000000
v 45.627350 0.000000 0.000000
v 0.000000 0.000000 0.000000
v 87.500000 137.500000 -43.000000
v 39.500000 17.799999 -43.000000
v 23.500002 49.000000 -34.500000
v 23.500002 23.500000 -17.500002
v 23.500002 23.500000 -9.000000
v 23.500002 32.000000 -17.500002
v 23.500002 32.000000 -26.000000
v 23.500002 40.500000 -26.000000
v 23.500002 40.500000 -34.500000
vn 1.0000 0.0000 0.0000
vn 0.0000 1.0000 0.0000
vn -1.0000 0.0000 0.0000
vn 0.0000 0.0000 1.0000
vn 0.0000 0.0000 -1.0000
vn 0.0000 -1.0000 0.0000
usemtl None
s off
f 1//1 2//1 3//1
f 3//1 2//1 4//1
f 3//1 4//1 5//1
f 5//1 6//1 3//1
f 3//1 6//1 7//1
f 3//1 7//1 8//1
f 9//1 10//1 11//1
f 11//1 10//1 3//1
f 11//1 3//1 12//1
f 12//1 3//1 8//1
f 3//2 10//2 13//2
f 14//2 15//2 16//2
f 16//2 15//2 3//2
f 16//2 3//2 17//2
f 17//2 3//2 13//2
f 17//2 13//2 18//2
f 18//2 13//2 19//2
f 20//3 21//3 22//3
f 22//3 21//3 23//3
f 24//4 25//4 26//4
f 23//4 21//4 27//4
f 27//4 21//4 28//4
f 27//4 28//4 29//4
f 26//4 29//4 24//4
f 24//4 29//4 28//4
f 24//4 28//4 30//4
f 30//4 28//4 17//4
f 30//4 17//4 31//4
f 32//2 33//2 34//2
f 29//2 26//2 34//2
f 34//2 26//2 35//2
f 34//2 35//2 32//2
f 18//1 36//1 17//1
f 17//1 36//1 31//1
f 37//5 38//5 15//5
f 15//5 38//5 39//5
f 15//5 39//5 3//5
f 3//5 39//5 40//5
f 3//5 40//5 1//5
f 1//5 40//5 41//5
f 1//5 41//5 37//5
f 37//5 41//5 38//5
f 30//1 39//1 24//1
f 24//1 39//1 38//1
f 42//6 43//6 36//6
f 36//6 43//6 44//6
f 36//6 44//6 31//6
f 31//6 44//6 40//6
f 31//6 40//6 30//6
f 30//6 40//6 39//6
f 25//3 41//3 26//3
f 26//3 41//3 40//3
f 26//3 40//3 35//3
f 35//3 40//3 44//3
f 24//2 38//2 25//2
f 25//2 38//2 41//2
f 1//6 37//6 2//6
f 2//6 37//6 45//6
f 37//3 15//3 45//3
f 45//3 15//3 14//3
f 28//6 21//6 46//6
f 46//6 21//6 20//6
f 28//3 46//3 17//3
f 17//3 46//3 16//3
f 4//5 2//5 22//5
f 22//5 2//5 45//5
f 20//5 22//5 46//5
f 46//5 22//5 45//5
f 46//5 45//5 16//5
f 16//5 45//5 14//5
f 27//6 47//6 23//6
f 23//6 47//6 5//6
f 23//6 5//6 22//6
f 22//6 5//6 4//6
f 48//1 34//1 49//1
f 49//1 34//1 19//1
f 49//1 19//1 13//1
f 48//1 50//1 34//1
f 34//1 50//1 51//1
f 34//1 51//1 52//1
f 27//1 29//1 47//1
f 47//1 29//1 34//1
f 47//1 34//1 53//1
f 53//1 34//1 52//1
f 49//5 13//5 9//5
f 9//5 13//5 10//5
f 48//6 49//6 11//6
f 11//6 49//6 9//6
f 50//5 48//5 12//5
f 12//5 48//5 11//5
f 51//6 50//6 8//6
f 8//6 50//6 12//6
f 52//5 51//5 7//5
f 7//5 51//5 8//5
f 53//6 52//6 6//6
f 6//6 52//6 7//6
f 47//5 53//5 5//5
f 5//5 53//5 6//5
f 42//5 36//5 18//5
f 19//5 34//5 18//5
f 18//5 34//5 33//5
f 18//5 33//5 42//5
f 32//1 43//1 33//1
f 33//1 43//1 42//1
f 43//4 32//4 44//4
f 44//4 32//4 35//4
