# Blender v2.91.0 OBJ File: ''
# www.blender.org
mtllib couverture.mtl
o Couverture
v 27.100000 30.000000 -4.416960
v 27.100000 6.000000 -4.416960
v 26.904226 6.000000 -5.653028
v 26.904226 30.000000 -5.653028
v 26.336069 6.000000 -6.768101
v 26.336069 30.000000 -6.768101
v 25.451141 6.000000 -7.653028
v 25.451141 30.000000 -7.653028
v 24.336067 6.000000 -8.221186
v 24.336067 30.000000 -8.221186
v 23.100000 6.000000 -8.416960
v 23.100000 30.000000 -8.416960
v 4.100000 30.000000 -8.416960
v 4.100000 6.000000 -8.416960
v 2.863932 6.000000 -8.221186
v 2.863932 30.000000 -8.221186
v 1.748859 6.000000 -7.653028
v 1.748859 30.000000 -7.653028
v 0.863932 6.000000 -6.768101
v 0.863932 30.000000 -6.768101
v 0.295774 6.000000 -5.653028
v 0.295774 30.000000 -5.653028
v 0.100000 6.000000 -4.416960
v 0.100000 30.000000 -4.416960
v 27.100000 30.000000 0.000000
v 26.100000 30.000000 0.000000
v 27.100000 0.000000 0.000000
v 26.100000 0.000000 0.000000
v 27.100000 0.000000 -4.416960
v 0.100000 30.000000 0.000000
v 0.100000 0.000000 0.000000
v 0.100000 0.000000 -4.416960
v 1.100000 30.000000 0.000000
v 1.100000 0.000000 0.000000
v 1.100000 30.000000 -4.916960
v 1.100000 0.000000 -4.916960
v 1.252241 30.000000 -5.682327
v 1.252241 0.000000 -5.682327
v 1.685787 30.000000 -6.331173
v 1.685787 0.000000 -6.331173
v 2.334633 30.000000 -6.764719
v 2.334633 0.000000 -6.764719
v 3.100000 30.000000 -6.916960
v 3.100000 0.000000 -6.916960
v 24.100000 30.000000 -6.916960
v 24.100000 0.000000 -6.916960
v 3.100000 0.000000 -6.916960
v 24.100000 0.000000 -6.916960
v 24.865368 30.000000 -6.764719
v 24.865368 0.000000 -6.764719
v 25.514214 30.000000 -6.331173
v 25.514214 0.000000 -6.331173
v 25.947760 30.000000 -5.682327
v 25.947760 0.000000 -5.682327
v 26.100000 30.000000 -4.916960
v 26.100000 0.000000 -4.916960
v 24.306482 0.000000 -9.235430
v 25.406128 0.000000 -8.706912
v 0.012266 0.000000 -5.633863
v 0.286506 0.000000 -6.822705
v 0.898439 0.000000 -7.878210
v 1.793873 0.000000 -8.706912
v 27.187735 0.000000 -5.633863
v 26.913494 0.000000 -6.822705
v 26.301561 0.000000 -7.878210
v 2.893519 0.000000 -9.235430
v 4.100000 0.000000 -9.416960
v 23.100000 0.000000 -9.416960
v 27.187735 6.000000 -5.633863
v 26.913494 6.000000 -6.822705
v 26.301561 6.000000 -7.878210
v 25.406128 6.000000 -8.706912
v 24.306482 6.000000 -9.235430
v 23.100000 6.000000 -9.416960
v 4.100000 6.000000 -9.416960
v 2.893519 6.000000 -9.235430
v 1.793873 6.000000 -8.706912
v 0.898439 6.000000 -7.878210
v 0.286506 6.000000 -6.822705
v 0.012266 6.000000 -5.633863
vn 0.9877 0.0000 -0.1564
vn 0.8910 0.0000 -0.4540
vn 0.7071 0.0000 -0.7071
vn 0.4540 0.0000 -0.8910
vn 0.1564 0.0000 -0.9877
vn 0.0000 0.0000 -1.0000
vn -0.1564 0.0000 -0.9877
vn -0.4540 0.0000 -0.8910
vn -0.7071 0.0000 -0.7071
vn -0.8910 0.0000 -0.4540
vn -0.9877 0.0000 -0.1564
vn 0.0000 0.0000 1.0000
vn 1.0000 0.0000 0.0000
vn -1.0000 0.0000 0.0000
vn 0.9808 0.0000 0.1951
vn 0.8315 0.0000 0.5556
vn 0.5556 0.0000 0.8315
vn 0.1951 0.0000 0.9808
vn -0.1951 0.0000 0.9808
vn -0.5556 0.0000 0.8315
vn -0.8315 0.0000 0.5556
vn -0.9808 0.0000 0.1951
vn 0.0000 1.0000 0.0000
vn 0.0000 -1.0000 0.0000
vn 0.9974 0.0000 0.0719
vn 0.9744 0.0000 -0.2248
vn 0.8651 0.0000 -0.5016
vn 0.6792 0.0000 -0.7339
vn 0.4332 0.0000 -0.9013
vn 0.1488 0.0000 -0.9889
vn -0.1488 0.0000 -0.9889
vn -0.4332 0.0000 -0.9013
vn -0.6792 0.0000 -0.7339
vn -0.8651 0.0000 -0.5016
vn -0.9744 0.0000 -0.2248
vn -0.9974 0.0000 0.0719
usemtl None
s off
f 1//1 2//1 3//1
f 1//1 3//1 4//1
f 4//2 3//2 5//2
f 4//2 5//2 6//2
f 6//3 5//3 7//3
f 6//3 7//3 8//3
f 8//4 7//4 9//4
f 8//4 9//4 10//4
f 10//5 9//5 11//5
f 10//5 11//5 12//5
f 13//6 12//6 14//6
f 14//6 12//6 11//6
f 13//7 14//7 15//7
f 13//7 15//7 16//7
f 16//8 15//8 17//8
f 16//8 17//8 18//8
f 18//9 17//9 19//9
f 18//9 19//9 20//9
f 20//10 19//10 21//10
f 20//10 21//10 22//10
f 22//11 21//11 23//11
f 22//11 23//11 24//11
f 25//12 26//12 27//12
f 27//12 26//12 28//12
f 1//13 25//13 2//13
f 2//13 25//13 27//13
f 2//13 27//13 29//13
f 30//14 24//14 31//14
f 31//14 24//14 23//14
f 31//14 23//14 32//14
f 33//12 30//12 34//12
f 34//12 30//12 31//12
f 35//13 33//13 36//13
f 36//13 33//13 34//13
f 35//15 36//15 37//15
f 37//15 36//15 38//15
f 37//16 38//16 39//16
f 39//16 38//16 40//16
f 39//17 40//17 41//17
f 41//17 40//17 42//17
f 41//18 42//18 43//18
f 43//18 42//18 44//18
f 45//12 43//12 46//12
f 46//12 43//12 47//12
f 45//19 48//19 49//19
f 49//19 48//19 50//19
f 49//20 50//20 51//20
f 51//20 50//20 52//20
f 51//21 52//21 53//21
f 53//21 52//21 54//21
f 53//22 54//22 55//22
f 55//22 54//22 56//22
f 26//14 55//14 28//14
f 28//14 55//14 56//14
f 43//23 45//23 12//23
f 26//23 25//23 55//23
f 55//23 25//23 1//23
f 55//23 1//23 53//23
f 53//23 1//23 4//23
f 53//23 4//23 51//23
f 51//23 4//23 6//23
f 51//23 6//23 49//23
f 49//23 6//23 8//23
f 49//23 8//23 45//23
f 45//23 8//23 10//23
f 45//23 10//23 12//23
f 30//23 33//23 24//23
f 24//23 33//23 35//23
f 24//23 35//23 22//23
f 22//23 35//23 37//23
f 22//23 37//23 20//23
f 20//23 37//23 39//23
f 20//23 39//23 18//23
f 18//23 39//23 41//23
f 18//23 41//23 16//23
f 16//23 41//23 43//23
f 16//23 43//23 13//23
f 13//23 43//23 12//23
f 48//24 57//24 50//24
f 50//24 57//24 58//24
f 50//24 58//24 52//24
f 59//24 60//24 40//24
f 40//24 60//24 61//24
f 40//24 61//24 42//24
f 42//24 61//24 62//24
f 42//24 62//24 44//24
f 36//24 34//24 31//24
f 27//24 28//24 29//24
f 29//24 28//24 56//24
f 29//24 56//24 63//24
f 63//24 56//24 54//24
f 63//24 54//24 64//24
f 64//24 54//24 52//24
f 64//24 52//24 65//24
f 65//24 52//24 58//24
f 40//24 38//24 59//24
f 59//24 38//24 36//24
f 59//24 36//24 32//24
f 32//24 36//24 31//24
f 62//24 66//24 44//24
f 44//24 66//24 67//24
f 44//24 67//24 48//24
f 48//24 67//24 68//24
f 48//24 68//24 57//24
f 2//25 29//25 63//25
f 2//25 63//25 69//25
f 69//26 63//26 64//26
f 69//26 64//26 70//26
f 70//27 64//27 65//27
f 70//27 65//27 71//27
f 71//28 65//28 58//28
f 71//28 58//28 72//28
f 72//29 58//29 57//29
f 72//29 57//29 73//29
f 73//30 57//30 68//30
f 73//30 68//30 74//30
f 75//6 74//6 67//6
f 67//6 74//6 68//6
f 75//31 67//31 66//31
f 75//31 66//31 76//31
f 76//32 66//32 62//32
f 76//32 62//32 77//32
f 77//33 62//33 61//33
f 77//33 61//33 78//33
f 78//34 61//34 60//34
f 78//34 60//34 79//34
f 79//35 60//35 59//35
f 79//35 59//35 80//35
f 80//36 59//36 32//36
f 80//36 32//36 23//36
f 3//23 2//23 69//23
f 3//23 69//23 5//23
f 5//23 69//23 70//23
f 5//23 70//23 7//23
f 70//23 71//23 7//23
f 7//23 71//23 72//23
f 7//23 72//23 9//23
f 9//23 72//23 73//23
f 9//23 73//23 11//23
f 11//23 73//23 74//23
f 11//23 74//23 14//23
f 14//23 74//23 75//23
f 14//23 75//23 15//23
f 15//23 75//23 76//23
f 15//23 76//23 17//23
f 76//23 77//23 17//23
f 17//23 77//23 78//23
f 17//23 78//23 19//23
f 19//23 78//23 79//23
f 19//23 79//23 21//23
f 21//23 79//23 80//23
f 21//23 80//23 23//23
