# Blender v2.91.0 OBJ File: ''
# www.blender.org
mtllib Pantallon.mtl
o Pantallon
v 6.802731 6.860123 -1.000000
v 6.799236 4.749867 -1.000000
v 6.409105 4.854402 -1.000000
v 3.318119 1.567943 -1.000000
v 2.748474 1.567943 -1.000000
v 2.748474 3.448835 -1.000000
v 7.751753 1.567943 -1.000000
v 7.189366 1.567943 -1.000000
v 7.189366 4.074141 -1.000000
v 4.978092 18.681128 -1.000000
v 0.226937 18.681128 -1.000000
v 2.650452 4.596538 -1.000000
v 7.084831 4.464272 -1.000000
v 10.955009 4.596538 -1.000000
v 10.856988 3.448835 -1.000000
v 8.627370 18.681128 -1.000000
v 13.378525 18.681128 -1.000000
v 6.409105 1.567943 -1.000000
v 5.489323 1.567943 -1.000000
v 5.124414 1.567943 -1.000000
v 3.664782 1.567943 -1.000000
v 10.856988 1.567943 -1.000000
v 9.776994 1.567943 -1.000000
v 9.375595 1.567943 -1.000000
v 8.134907 1.567943 -1.000000
v 8.134907 1.567943 -0.800000
v 9.375595 1.567943 -0.800000
v 10.856988 1.567943 -0.800000
v 9.776994 1.567943 -0.800000
v 9.375595 0.000000 -0.800000
v 8.134907 0.000000 -0.800000
v 9.776994 0.000000 -0.800000
v 10.856988 0.000000 -0.800000
v 7.751753 1.567943 -0.800000
v 5.489323 1.567943 -0.800000
v 7.189366 1.567943 -1.200000
v 6.409105 1.567943 -1.200000
v 7.751753 0.000000 -0.800000
v 5.489323 0.000000 -0.800000
v 3.664782 1.567943 -0.800000
v 5.124414 1.567943 -0.800000
v 5.124414 0.000000 -0.800000
v 3.664782 0.000000 -0.800000
v 2.748474 1.567943 -0.800000
v 3.318119 1.567943 -0.800000
v 3.318119 0.000000 -0.800000
v 2.748474 0.000000 -0.800000
v 10.856988 0.000000 0.000000
v 2.748474 0.000000 0.000000
v 5.124414 0.000000 -1.050000
v 5.489323 0.000000 -1.050000
v 3.664782 0.000000 -1.050000
v 3.318119 0.000000 -1.050000
v 9.375595 0.000000 -1.050000
v 9.776994 0.000000 -1.050000
v 8.134907 0.000000 -1.050000
v 7.751753 0.000000 -1.050000
v 4.978092 18.681128 -1.750000
v 4.774516 20.000000 -1.750000
v 4.774516 20.000000 0.000000
v 6.802731 6.860123 0.000000
v 8.830945 20.000000 0.000000
v 8.627370 18.681128 -1.750000
v 8.830945 20.000000 -1.750000
v 13.605461 20.000000 -1.750000
v 13.605461 20.000000 0.000000
v 13.378525 18.681128 -1.750000
v 13.605461 20.000000 0.000000
v 10.955009 4.596538 0.000000
v 10.955009 4.596538 0.000000
v 10.856988 3.448835 0.000000
v 2.748474 3.448835 0.000000
v 2.650452 4.596538 0.000000
v 2.650452 4.596538 0.000000
v 0.000000 20.000000 0.000000
v 0.226937 18.681128 -1.750000
v 0.000000 20.000000 -1.750000
v 0.000000 20.000000 0.000000
v 3.318119 1.567943 -1.050000
v 3.664782 1.567943 -1.050000
v 5.124414 1.567943 -1.050000
v 5.489323 1.567943 -1.050000
v 7.751753 1.567943 -1.050000
v 8.134907 1.567943 -1.050000
v 9.375595 1.567943 -1.050000
v 9.776994 1.567943 -1.050000
v 6.409105 4.854402 -1.200000
v 6.799236 4.749867 -1.200000
v 7.084831 4.464272 -1.200000
v 7.189366 4.074141 -1.200000
vn 0.0000 0.0000 -1.0000
vn 0.0000 -1.0000 0.0000
vn 0.9883 0.1525 0.0000
vn -0.9883 0.1525 0.0000
vn 0.0000 1.0000 0.0000
vn 0.9855 -0.1696 0.0000
vn 0.9964 -0.0851 0.0000
vn 1.0000 0.0000 0.0000
vn -1.0000 0.0000 0.0000
vn -0.9964 -0.0851 0.0000
vn -0.9855 -0.1696 0.0000
vn 0.0000 0.0000 1.0000
vn 0.2588 0.9659 0.0000
vn 0.7071 0.7071 0.0000
vn 0.9659 0.2588 0.0000
usemtl None
s off
f 1//1 2//1 3//1
f 4//1 5//1 6//1
f 7//1 8//1 9//1
f 10//1 1//1 11//1
f 11//1 1//1 3//1
f 11//1 3//1 12//1
f 12//1 3//1 6//1
f 13//1 14//1 9//1
f 9//1 14//1 15//1
f 16//1 17//1 1//1
f 1//1 17//1 14//1
f 1//1 14//1 2//1
f 2//1 14//1 13//1
f 18//1 19//1 3//1
f 3//1 19//1 20//1
f 3//1 20//1 6//1
f 6//1 20//1 21//1
f 6//1 21//1 4//1
f 22//1 23//1 15//1
f 15//1 23//1 24//1
f 15//1 24//1 9//1
f 9//1 24//1 25//1
f 9//1 25//1 7//1
f 26//2 25//2 27//2
f 27//2 25//2 24//2
f 22//2 28//2 23//2
f 23//2 28//2 29//2
f 30//1 31//1 27//1
f 27//1 31//1 26//1
f 29//1 28//1 32//1
f 32//1 28//1 33//1
f 34//2 35//2 18//2
f 18//2 35//2 19//2
f 7//2 34//2 8//2
f 8//2 34//2 18//2
f 8//2 18//2 36//2
f 36//2 18//2 37//2
f 38//1 39//1 34//1
f 34//1 39//1 35//1
f 40//2 21//2 41//2
f 41//2 21//2 20//2
f 42//1 43//1 41//1
f 41//1 43//1 40//1
f 44//2 5//2 45//2
f 45//2 5//2 4//2
f 46//1 47//1 45//1
f 45//1 47//1 44//1
f 32//2 33//2 48//2
f 48//2 49//2 46//2
f 46//2 49//2 47//2
f 42//2 50//2 51//2
f 39//2 38//2 48//2
f 51//2 39//2 42//2
f 42//2 39//2 48//2
f 42//2 48//2 43//2
f 43//2 48//2 46//2
f 43//2 46//2 52//2
f 52//2 46//2 53//2
f 30//2 54//2 55//2
f 55//2 32//2 30//2
f 30//2 32//2 48//2
f 30//2 48//2 31//2
f 31//2 48//2 38//2
f 31//2 38//2 56//2
f 56//2 38//2 57//2
f 58//3 59//3 10//3
f 10//3 59//3 60//3
f 10//3 60//3 1//3
f 1//3 60//3 61//3
f 1//4 61//4 16//4
f 16//4 61//4 62//4
f 16//4 62//4 63//4
f 63//4 62//4 64//4
f 65//5 64//5 66//5
f 66//5 64//5 62//5
f 67//6 65//6 17//6
f 17//6 65//6 68//6
f 17//6 68//6 14//6
f 14//6 68//6 69//6
f 14//7 70//7 15//7
f 15//7 70//7 71//7
f 22//8 15//8 28//8
f 28//8 15//8 71//8
f 28//8 71//8 33//8
f 33//8 71//8 48//8
f 47//9 49//9 44//9
f 44//9 49//9 72//9
f 44//9 72//9 5//9
f 5//9 72//9 6//9
f 6//10 72//10 12//10
f 12//10 72//10 73//10
f 12//11 74//11 11//11
f 11//11 74//11 75//11
f 11//11 75//11 76//11
f 76//11 75//11 77//11
f 59//5 77//5 60//5
f 60//5 77//5 78//5
f 61//12 60//12 78//12
f 78//12 73//12 61//12
f 61//12 73//12 72//12
f 61//12 72//12 49//12
f 66//12 62//12 70//12
f 70//12 62//12 61//12
f 70//12 61//12 71//12
f 71//12 61//12 49//12
f 71//12 49//12 48//12
f 79//9 53//9 4//9
f 4//9 53//9 46//9
f 4//9 46//9 45//9
f 80//5 79//5 21//5
f 21//5 79//5 4//5
f 40//8 43//8 21//8
f 21//8 43//8 52//8
f 21//8 52//8 80//8
f 80//1 52//1 79//1
f 79//1 52//1 53//1
f 81//9 50//9 20//9
f 20//9 50//9 42//9
f 20//9 42//9 41//9
f 82//5 81//5 19//5
f 19//5 81//5 20//5
f 35//8 39//8 19//8
f 19//8 39//8 51//8
f 19//8 51//8 82//8
f 82//1 51//1 81//1
f 81//1 51//1 50//1
f 83//9 57//9 7//9
f 7//9 57//9 38//9
f 7//9 38//9 34//9
f 84//5 83//5 25//5
f 25//5 83//5 7//5
f 26//8 31//8 25//8
f 25//8 31//8 56//8
f 25//8 56//8 84//8
f 84//1 56//1 83//1
f 83//1 56//1 57//1
f 85//9 54//9 24//9
f 24//9 54//9 30//9
f 24//9 30//9 27//9
f 86//5 85//5 23//5
f 23//5 85//5 24//5
f 29//8 32//8 23//8
f 23//8 32//8 55//8
f 23//8 55//8 86//8
f 86//1 55//1 85//1
f 85//1 55//1 54//1
f 87//9 37//9 3//9
f 3//9 37//9 18//9
f 87//13 3//13 2//13
f 87//13 2//13 88//13
f 88//14 2//14 13//14
f 88//14 13//14 89//14
f 89//15 13//15 9//15
f 89//15 9//15 90//15
f 36//8 90//8 8//8
f 8//8 90//8 9//8
f 36//1 37//1 90//1
f 90//1 37//1 87//1
f 90//1 87//1 89//1
f 89//1 87//1 88//1
f 63//2 67//2 16//2
f 16//2 67//2 17//2
f 65//1 67//1 64//1
f 64//1 67//1 63//1
f 76//2 58//2 11//2
f 11//2 58//2 10//2
f 77//1 59//1 76//1
f 76//1 59//1 58//1
